<svg width="800" height="600" viewBox="0 0 800 600" fill="none" xmlns="http://www.w3.org/2000/svg" data-reactroot="">
<path opacity="0.8" d="M35.9379 470.313C52.9692 470.313 78.9067 469.844 110.625 467.5C155.86 464.141 176.407 460.938 201.875 457.266C250.235 450.391 292.344 467.344 340.469 467.734C397.969 468.203 454.922 462.578 512.5 464.609C531.172 465.234 548.907 464.844 567.188 468.984C572.344 470.156 577.032 470.938 582.032 471.328C584.688 471.484 586.719 471.484 587.579 471.484C659.297 471.406 749.375 477.266 760.938 464.844C780.704 443.594 716.172 385.703 690.86 354.922C671.485 331.406 662.657 343.516 574.61 300.703C535.938 281.875 521.797 271.875 499.375 275.859C481.797 278.984 464.454 289.766 452.969 281.094C448.125 277.422 445.313 271.094 445.157 265.391C444.063 236.25 413.907 240.859 411.172 243.828C397.188 258.828 398.438 281.172 383.204 293.125C381.563 294.375 377.5 297.578 371.407 299.063C366.797 300.156 362.11 299.844 355.782 298.828C313.75 291.719 272.891 281.719 230.86 275.469C218.75 273.672 206.954 267.891 194.532 270.234C176.954 273.594 170.157 293.125 158.516 305.078C146.016 317.969 136.094 332.734 126.172 347.734C107.579 375.938 112.344 395.938 103.125 397.734C88.8286 400.313 80.4692 357.031 58.5942 355.469C36.5629 353.906 5.00043 395.078 12.5004 432.813C16.4067 452.422 29.6879 465.078 35.9379 470.313Z" fill="#B5CDFB"></path>
<path d="M337.109 462.344L354.922 460.625L409.141 340L388.828 343.359L337.109 462.344Z" fill="#C4B6FF"></path>
<path d="M264.762 282.042C270.074 282.198 277.809 288.136 279.293 293.136C280.778 298.058 279.84 305.011 279.996 310.167C280.465 326.808 281.949 343.214 284.215 359.776C286.168 373.917 289.371 390.323 288.824 404.151C288.59 408.604 289.606 422.667 287.106 425.245C284.449 427.979 266.949 423.37 263.356 420.636C261.871 419.464 262.262 420.245 261.168 418.292C259.84 415.87 260.621 410.714 260.699 408.214C260.778 398.136 262.496 388.526 263.199 378.526C264.84 355.479 263.824 332.198 265.465 309.073C265.856 303.761 267.574 298.136 266.871 293.058C266.324 290.401 264.684 288.214 264.762 282.042Z" fill="#C4B6FF"></path>
<path d="M135.313 445.703C134.688 446.484 134.219 447.422 133.985 448.515C133.828 449.062 133.75 449.609 133.672 450.234C132.578 452.89 127.344 452.031 126.406 454.375C125.625 456.406 127.735 459.062 128.828 461.484C129.141 462.187 129.375 462.89 129.375 463.594C129.453 466.015 128.906 466.172 126.875 466.875C117.422 470.39 105.391 469.922 95.469 467.969C91.9534 467.265 78.594 466.875 75.3127 465.468C73.9065 464.843 71.719 464.219 71.1721 462.656C70.3127 460.156 72.969 457.734 74.9221 456.875C77.5784 455.703 118.281 445.078 120.313 444.844C123.75 444.375 128.125 443.125 131.641 443.437C133.281 443.515 134.531 444.375 135.313 445.703Z" fill="#7D55FF"></path>
<path d="M106.25 472.578C113.047 472.734 119.766 474.844 126.484 475.078C130.156 475.234 133.906 475.078 137.578 475.078" stroke="#353535" stroke-width="3.5865" stroke-miterlimit="10" stroke-linecap="round"></path>
<path d="M99.2969 485.781C108.75 488.516 119.297 487.344 128.828 489.453" stroke="#353535" stroke-width="3.5865" stroke-miterlimit="10" stroke-linecap="round"></path>
<path d="M157.5 449.375L150.078 462.813C143.203 461.563 135.859 462.188 128.906 461.484C127.891 459.063 125.781 456.406 126.484 454.375C127.422 452.031 132.656 452.891 133.75 450.234C133.828 449.688 133.906 449.062 134.063 448.516C138.516 448.984 142.969 449.844 147.422 449.766C150.703 449.766 154.141 449.453 157.5 449.375Z" fill="#EED3AC"></path>
<path d="M161.793 435.167C154.371 435.167 146.246 434.229 139.137 436.104C138.355 439.464 139.137 442.589 139.137 446.026C139.137 454.698 124.527 485.167 123.277 493.761C148.199 495.636 173.824 498.136 199.059 499.776C217.965 501.026 236.949 501.183 255.855 502.901C263.59 503.604 287.105 502.589 294.684 500.714C304.527 498.37 327.34 475.089 328.121 464.698C330.309 437.042 288.277 409.62 261.871 406.183C254.605 405.245 247.184 404.151 239.918 403.761C224.293 402.98 207.184 402.433 191.715 403.761C183.668 404.464 156.246 400.011 156.246 400.011C156.246 400.011 148.98 422.355 161.793 435.167Z" fill="#C4B6FF"></path>
<path d="M151.797 433.36C157.969 433.203 164.766 435.703 170.859 436.563C180.234 437.813 189.453 439.219 198.672 441.406C207.969 443.672 217.656 444.297 227.031 446.406C235.781 448.36 244.297 451.328 252.969 453.672C258.437 455.156 264.219 457.031 269.609 457.813" stroke="#353535" stroke-width="3.5865" stroke-miterlimit="10" stroke-linecap="round"></path>
<path d="M110.075 473.292C110.387 471.495 110.934 469.698 112.106 468.448C111.247 467.042 109.918 465.948 108.2 465.714C104.372 465.167 99.5278 466.417 95.6997 466.729C93.434 466.964 48.1997 476.886 45.2309 478.058C43.0434 478.917 39.9965 481.495 40.8559 484.308C41.3247 486.026 43.7465 486.808 45.2309 487.589C48.8247 489.308 63.434 490.245 67.3403 491.183C78.1215 493.839 91.3247 494.776 101.95 491.339C104.215 490.636 104.762 490.479 104.84 487.823C104.918 484.698 100.778 480.401 102.028 477.511C103.043 474.933 108.825 476.183 110.075 473.292Z" fill="#C4B6FF"></path>
<path d="M221.875 265.781C204.453 265.781 191.172 269.375 175.391 276.484C166.172 280.625 161.406 293.047 157.734 302.031C148.906 323.359 145.625 346.484 142.734 369.141C141.953 375 136.953 391.406 141.25 397.5C146.25 404.531 163.75 403.984 171.094 404.453C184.375 405.313 197.969 406.016 211.094 407.734C216.953 408.516 222.891 409.766 228.906 409.531C236.719 409.219 244.375 406.875 252.187 406.094C257.812 405.547 267.422 407.5 271.328 403.516C275.937 398.75 274.609 382.344 274.844 377.031C275.937 349.453 272.422 322.891 270.312 295.547C270 291.875 270.312 288.125 269.062 284.766C264.453 272.266 249.219 272.5 238.203 270.391C232.109 269.141 227.266 266.406 221.875 265.781Z" fill="#7D55FF"></path>
<path d="M212.261 278.058C206.246 275.089 194.293 275.948 187.574 277.198C179.449 278.683 170.152 285.011 165.074 291.339C159.683 297.979 163.98 345.323 163.98 353.839C163.98 356.808 163.98 359.698 164.136 362.589C164.527 368.136 160.621 392.355 164.058 397.276C166.089 400.167 211.636 415.636 231.949 417.745C252.261 419.855 296.48 429.542 302.652 430.011C306.324 420.167 312.105 390.167 317.261 381.417C303.824 374.073 298.511 375.558 281.949 370.401C271.871 367.276 260.855 364.855 250.386 362.589C238.824 360.089 225.777 357.276 216.324 349.855" fill="#C4B6FF"></path>
<path d="M366.172 314.922C350.547 344.141 335.313 373.516 322.656 404.063C317.578 416.406 312.969 429.844 306.328 441.484C303.359 446.719 299.688 451.797 296.875 457.109C298.281 463.047 302.422 475.156 302.422 475.156L317.188 483.906L343.516 480.469C343.516 480.469 398.516 362.891 407.266 337.969C399.766 337.969 393.75 339.141 386.953 341.172C381.875 339.375 377.266 337.109 372.188 336.094C369.219 330.391 366.172 321.406 366.172 314.922Z" stroke="#005B9D" stroke-width="3.5865" stroke-miterlimit="10" stroke-linecap="round"></path>
<path d="M366.172 314.922C350.547 344.141 335.313 373.516 322.656 404.063C317.578 416.406 312.969 429.844 306.328 441.484C303.359 446.719 299.688 451.797 296.875 457.109C298.281 463.047 302.422 475.156 302.422 475.156L317.188 483.906L343.516 480.469C343.516 480.469 398.516 362.891 407.266 337.969C399.766 337.969 393.75 339.141 386.953 341.172C381.875 339.375 377.266 337.109 372.188 336.094C369.219 330.391 366.172 321.406 366.172 314.922Z" stroke="black" stroke-opacity="0.34" stroke-width="3.5865" stroke-miterlimit="10" stroke-linecap="round"></path>
<path d="M355 455.703L328.672 459.375L316.016 453.828L310.078 443.672" stroke="#005B9D" stroke-width="3.5865" stroke-miterlimit="10" stroke-linecap="round"></path>
<path d="M355 455.703L328.672 459.375L316.016 453.828L310.078 443.672" stroke="black" stroke-opacity="0.34" stroke-width="3.5865" stroke-miterlimit="10" stroke-linecap="round"></path>
<path d="M368.438 309.922L414.219 270.547L412.891 332.344L393.437 335.313L375.703 329.375L368.438 309.922Z" fill="#7D55FF"></path>
<path d="M391.094 294.453C400.078 303.672 405.937 305.469 416.484 300.937" stroke="#005B9D" stroke-width="3.5865" stroke-miterlimit="10" stroke-linecap="round"></path>
<path d="M311.016 391.25C313.594 391.094 315.937 392.266 318.594 392.188C322.187 392.031 325.078 386.797 329.063 386.953C327.578 391.094 326.563 395.703 325.781 400C325.625 400.078 328.203 417.422 361.016 416.25C365.156 416.094 369.375 414.531 373.516 413.984C374.531 413.828 375.469 413.281 376.406 413.281C376.641 415.078 377.266 416.484 376.641 418.281C376.25 419.453 375.703 421.719 374.531 422.344C375.703 426.484 375.156 431.484 371.953 434.531C372.578 438.906 367.5 441.641 363.984 442.969C362.734 445 359.453 445.781 357.344 446.641C353.828 448.125 348.594 448.438 344.766 447.656C337.891 446.172 322.656 448.359 310.859 428.047C308.828 424.531 310.234 419.297 310.234 415.156C310.234 413.984 309.922 412.266 310.547 411.25C309.297 410.156 308.125 409.063 307.031 407.891C307.109 403.75 308.672 399.297 309.687 395.391C310.078 393.906 311.094 392.734 311.016 391.25Z" fill="#EED3AC"></path>
<path d="M317.656 378.516C316.406 381.797 313.828 384.375 312.734 387.812C311.094 392.891 310.469 398.125 309.062 403.203C307.812 407.734 300.156 431.797 299.844 436.484C296.719 435.469 162.109 402.344 153.984 392.422" stroke="#353535" stroke-width="3.5865" stroke-miterlimit="10" stroke-linecap="round"></path>
<path d="M355.859 425.312C360.391 426.094 365.469 426.406 369.844 424.844C371.563 424.219 373.281 423.125 374.844 422.578" stroke="#353535" stroke-width="3.5865" stroke-miterlimit="10" stroke-linecap="round"></path>
<path d="M350.781 435.938C354.297 436.406 357.734 437.344 360.938 435.625" stroke="#353535" stroke-width="3.5865" stroke-miterlimit="10" stroke-linecap="round"></path>
<path d="M233.203 254.219V273.047C233.203 277.11 229.922 280.469 225.781 280.469C221.719 280.469 218.359 277.188 218.359 273.047V254.219C218.359 250.157 221.641 246.797 225.781 246.797C227.812 246.797 229.688 247.657 231.016 248.985C232.422 250.313 233.203 252.188 233.203 254.219Z" fill="#EED3AC"></path>
<path d="M233.203 254.219V261.094C227.812 260.469 222.813 258.75 218.438 256.094V254.219C218.438 250.157 221.719 246.797 225.859 246.797C227.891 246.797 229.766 247.657 231.094 248.985C232.422 250.313 233.203 252.188 233.203 254.219Z" fill="#353535"></path>
<path d="M254.922 258.829H237.5C216.797 258.829 200 242.032 200 221.329H254.922C265.312 221.329 273.672 229.688 273.672 240.079C273.672 250.391 265.312 258.829 254.922 258.829Z" fill="#EED3AC"></path>
<path d="M208.203 237.266C204.453 241.016 198.281 241.016 194.531 237.266C190.781 233.516 190.781 227.344 194.531 223.594" stroke="#353535" stroke-width="3.5865" stroke-miterlimit="10" stroke-linecap="round"></path>
<path d="M243.594 253.594C244.219 255.547 248.438 256.25 249.609 254.687" stroke="#353535" stroke-width="3.5865" stroke-miterlimit="10" stroke-linecap="round"></path>
<path d="M232.578 235.547C233.203 234.922 233.906 234.532 234.609 234.219C235.312 233.907 236.015 233.75 236.718 233.594C237.421 233.438 238.125 233.438 238.906 233.36C239.609 233.36 240.39 233.438 241.171 233.594L241.406 233.672C242.656 233.907 243.437 235.157 243.203 236.407C242.968 237.657 241.718 238.438 240.468 238.204C240.234 238.125 240 238.047 239.765 237.969C239.453 237.735 238.984 237.579 238.437 237.422C237.968 237.266 237.421 237.188 236.953 237.11C235.937 237.032 234.921 237.11 234.218 237.422L234.062 237.5C233.437 237.813 232.656 237.579 232.343 236.954C232.109 236.485 232.265 235.938 232.578 235.547Z" fill="#353535"></path>
<path d="M261.171 238.36C261.093 238.203 260.859 237.969 260.546 237.735C260.156 237.5 259.765 237.344 259.218 237.188C258.281 236.953 257.109 236.875 256.093 236.953H256.015C255.312 237.031 254.687 236.563 254.609 235.86C254.531 235.313 254.843 234.766 255.312 234.531C256.64 233.906 257.968 233.594 259.452 233.438C260.156 233.36 260.937 233.438 261.796 233.516C262.577 233.672 263.515 233.906 264.374 234.531L265.468 235.313C266.718 236.172 267.031 237.969 266.171 239.219C265.312 240.469 263.515 240.781 262.265 239.922C261.64 239.61 261.327 238.985 261.171 238.36Z" fill="#353535"></path>
<path d="M234.375 240.391C234.609 239.063 235.781 238.204 237.109 238.438C237.734 238.516 238.203 238.828 238.594 239.297" stroke="#353535" stroke-width="3.5865" stroke-miterlimit="10" stroke-linecap="round"></path>
<path d="M256.641 240.469C257.031 239.922 257.656 239.454 258.359 239.375C259.688 239.219 260.859 240.157 261.016 241.407" stroke="#353535" stroke-width="3.5865" stroke-miterlimit="10" stroke-linecap="round"></path>
<path d="M250.703 248.672C251.094 249.219 252.656 249.219 253.125 248.438C253.516 247.813 252.891 246.172 252.656 246.484" stroke="#353535" stroke-width="3.5865" stroke-miterlimit="10" stroke-linecap="round"></path>
<path d="M197.812 231.25C199.531 231.25 200 231.797 200.625 233.437" stroke="#353535" stroke-width="3.2234" stroke-miterlimit="10" stroke-linecap="round"></path>
<path d="M199.922 231.406C200.391 230.703 201.016 230 201.797 229.766" stroke="#353535" stroke-width="3.2234" stroke-miterlimit="10" stroke-linecap="round"></path>
<path d="M319.375 188.985C320.469 188.282 322.266 187.5 323.516 186.485" stroke="#78D2EE" stroke-width="3.586" stroke-miterlimit="10" stroke-linecap="round"></path>
<path d="M326.016 198.047C327.734 197.735 329.609 197.422 331.328 197.657" stroke="#78D2EE" stroke-width="3.586" stroke-miterlimit="10" stroke-linecap="round"></path>
<path d="M220.937 246.797C223.047 245.235 224.843 243.282 226.328 241.094C231.562 232.969 229.609 224.141 229.14 222.422C237.343 221.407 248.984 221.328 258.515 228.047C268.672 235.157 267.968 243.907 276.562 247.813C288.359 253.125 309.297 245.703 315 230.86C321.953 212.578 304.922 190.235 286.172 187.969C274.375 186.563 264.843 193.516 261.875 195.86C259.297 190.703 254.062 182.11 244.375 176.094C225.468 164.297 200.547 168.907 184.531 180.625C169.14 191.797 164.062 207.891 162.5 213.985C148.672 213.125 136.406 221.641 133.125 233.75C130.39 243.75 133.906 254.922 141.562 260.86C152.578 269.453 171.797 267.032 183.359 252.422C184.218 254.61 178.125 269.219 186.718 273.36C188.515 274.219 200 279.688 209.297 272.813C215.468 268.282 218.281 260.078 216.64 251.875" stroke="#353535" stroke-width="3.5865" stroke-miterlimit="10" stroke-linecap="round"></path>
<path d="M268.746 202.276C272.417 202.12 275.542 200.089 279.292 200.011C281.636 199.933 284.058 199.933 286.324 200.245C291.871 201.026 301.246 202.433 305.542 206.729C308.199 209.308 309.136 214.464 309.449 218.058C309.839 222.354 310.386 229.229 308.121 233.214C307.027 235.167 305.152 235.87 303.121 236.417C301.011 237.042 298.824 237.667 296.714 238.214C295.308 238.604 291.714 240.167 290.542 239.308C289.292 238.37 289.449 233.526 289.605 232.198C290.074 228.604 291.949 225.323 291.48 221.573C290.777 215.401 287.339 210.636 281.48 209.464C277.652 208.683 274.136 206.573 270.621 204.933C269.527 204.386 268.042 203.917 268.746 202.276Z" fill="#7D55FF"></path>
<path d="M160.465 220.949C156.871 218.996 150.387 222.824 147.105 224.465C143.277 226.34 138.668 229.152 137.34 233.527C135.933 238.136 137.574 245.48 139.683 249.699C142.418 255.168 147.183 256.418 152.808 256.965C154.137 257.121 158.824 257.668 159.371 255.949C159.996 254.152 155.23 253.683 154.137 253.449C150.465 252.511 146.48 250.715 144.215 247.59C142.105 244.699 141.402 240.168 140.543 236.808C139.918 234.543 139.605 232.511 140.933 230.48C142.73 227.746 147.027 225.715 150.074 224.621C151.402 224.152 152.965 224.465 154.215 223.918C155.308 223.449 156.09 222.199 157.105 221.886" fill="#7D55FF"></path>
<path d="M191.089 267.354C190.777 270.167 194.605 272.667 197.027 273.213C199.371 273.682 201.792 272.979 203.98 272.276C205.699 271.807 207.574 271.495 209.136 270.557C210.855 269.542 212.339 267.198 213.355 265.479C213.902 264.542 215.542 260.792 214.839 259.542C214.605 259.151 213.433 258.838 212.964 258.995C211.871 259.463 211.48 261.495 210.699 262.276C210.308 262.745 209.527 263.135 209.058 263.448C204.371 266.182 199.917 266.104 194.683 265.635C192.808 265.713 192.105 266.651 191.089 267.354Z" fill="#7D55FF"></path>
<path opacity="0.4" d="M386.953 466.875L533.203 414.453L615.469 449.609L497.031 503.125L386.953 466.875Z" fill="#353535"></path>
<path d="M535.234 411.406C535.547 411.562 535.859 411.719 536.016 411.797C536.328 411.953 536.562 412.109 536.797 412.187L540.547 413.594L544.609 415.156C545.547 415.469 546.406 415.859 547.344 416.172C553.75 418.594 559.766 420.859 565.625 423.984C567.656 425.078 569.766 425.703 571.719 426.328C572.969 426.719 574.141 427.031 575.234 427.5C576.562 428.047 577.891 428.75 579.297 429.531C581.25 430.625 583.281 431.797 585.625 432.422C586.484 432.656 587.266 432.813 588.047 432.969C588.906 433.125 589.687 433.281 590.469 433.516C590.859 433.672 591.25 433.906 591.719 434.141C592.656 434.609 593.828 435.234 595.234 435.391C595.547 435.469 595.859 435.469 596.172 435.469C596.562 435.469 596.875 435.469 597.188 435.391C597.422 435.391 597.656 435.391 597.812 435.391C597.969 435.391 598.047 435.391 598.125 435.391C598.906 435.547 599.922 436.016 600.938 436.406C601.484 436.641 602.031 436.875 602.656 437.109L607.188 438.828C605.156 440.078 603.047 441.25 601.016 441.953C597.969 442.969 595.156 443.906 592.266 446.016C590.781 447.109 589.297 447.656 587.5 448.438C586.797 448.75 586.094 448.984 585.312 449.375C577.188 452.891 569.219 457.031 561.484 460.937C557.734 462.891 553.828 464.922 549.922 466.797L545.625 468.906L535.547 473.906C534.297 474.531 532.812 475.078 531.25 475.625C528.672 476.562 526.016 477.5 523.75 479.062C523.516 479.219 523.359 479.375 523.125 479.453C522.109 480.156 521.25 480.781 520.234 481.328C519.297 481.797 518.125 482.109 516.953 482.422C515.625 482.812 514.141 483.203 512.734 483.906C510.859 484.844 509.531 486.25 508.359 487.578C507.5 488.516 506.719 489.453 505.859 489.844C505.547 490 505.391 490 505.234 490C504.844 490 504.297 489.844 503.672 489.609C503.438 489.531 503.203 489.453 502.969 489.375C495.625 487.109 488.125 485 480.859 483.047C477.266 482.031 473.516 481.016 469.844 480L446.562 473.359L423.281 466.719L410 462.969L407.578 462.266C434.844 451.563 525.625 415.312 535.234 411.406ZM535.156 408.438C535.078 408.438 535.078 408.438 535 408.438C534.922 408.438 398.984 462.734 398.984 462.734C406.875 465 414.766 467.188 422.578 469.453C438.125 473.828 453.594 478.281 469.141 482.656C480.156 485.781 491.25 488.672 502.187 492.031C503.359 492.422 504.297 492.734 505.234 492.734C505.859 492.734 506.484 492.578 507.109 492.266C509.766 490.859 511.172 487.734 513.906 486.406C516.328 485.234 518.984 485 521.406 483.828C522.891 483.125 523.984 482.266 525.313 481.328C528.516 479.062 533.203 478.125 536.797 476.328C541.562 473.984 546.406 471.562 551.172 469.219C562.891 463.437 574.375 457.031 586.406 451.797C589.219 450.625 591.406 450 593.906 448.203C596.484 446.328 599.062 445.469 601.953 444.531C605.937 443.203 609.922 440.156 613.75 438.281H613.672C613.125 438.281 611.328 437.344 611.016 437.187C608.594 436.25 606.094 435.313 603.672 434.375C602.109 433.75 600.391 432.812 598.75 432.5C598.438 432.422 598.203 432.422 597.891 432.422C597.344 432.422 596.797 432.5 596.25 432.5C596.016 432.5 595.859 432.5 595.625 432.5C594.141 432.266 592.812 431.25 591.406 430.781C589.766 430.234 588.047 430.078 586.484 429.609C582.969 428.594 579.844 426.172 576.406 424.766C573.203 423.516 570.078 423.047 567.031 421.406C560.156 417.734 552.969 415.156 545.703 412.344C543.047 411.328 540.469 410.313 537.813 409.375C537.5 409.453 535.781 408.438 535.156 408.438Z" fill="#7D55FF"></path>
<path d="M382.969 467.188L517.5 409.219L597.109 437.031L488.906 494.219L382.969 467.188Z" fill="#C4B6FF"></path>
<path d="M511.797 422.578C513.828 423.672 515.938 424.844 518.125 425.703C520.156 426.484 522.813 426.719 524.531 427.969C527.344 429.922 527.031 433.75 530.781 434.609C535.156 435.547 539.609 436.328 543.75 438.359C547.344 440.156 551.563 442.031 554.687 444.609" stroke="#FFE458" stroke-width="3.5865" stroke-miterlimit="10" stroke-linecap="round"></path>
<path d="M497.5 430.781C503.438 433.438 508.672 435.937 513.984 439.453C516.094 440.859 518.281 441.875 520.703 442.656C523.828 443.672 524.844 443.75 527.422 445.469C528.984 446.563 529.922 447.812 531.953 448.047" stroke="#FFE458" stroke-width="3.5865" stroke-miterlimit="10" stroke-linecap="round"></path>
<path opacity="0.4" d="M475.938 483.203L440.703 472.656L469.688 458.672L504.922 469.219L475.938 483.203Z" fill="#353535"></path>
<path d="M479.844 441.172C484.219 440.625 488.516 441.406 491.25 444.219C493.75 446.875 493.906 447.266 497.578 448.203C502.266 449.375 505 451.328 508.906 453.516" stroke="#FFE458" stroke-width="3.5865" stroke-miterlimit="10" stroke-linecap="round"></path>
<path d="M472.031 476.25L436.797 465.703L465.781 451.719L501.016 462.266L472.031 476.25Z" fill="#7D55FF"></path>
<path d="M482.344 461.328C481.25 461.328 480.234 461.328 479.063 461.562C475.781 462.266 472.578 463.047 469.375 463.906C467.5 464.375 465.469 465.312 463.516 465.547C463.516 463.828 463.281 461.641 462.734 460.078" stroke="#005B9D" stroke-width="3.5865" stroke-miterlimit="10" stroke-linecap="round"></path>
<path d="M300.703 282.327C317.812 281.389 334.375 284.28 351.094 287.014" stroke="#78D2EE" stroke-width="3.586" stroke-miterlimit="10" stroke-linecap="round"></path>
<path d="M700.468 114.297C698.828 118.281 696.484 117.734 691.875 117.891C682.265 118.125 672.734 115.781 663.046 115.937C645.312 116.25 627.578 116.25 609.843 115.859C601.406 115.703 579.375 113.125 579.375 113.125C527.343 105.469 599.843 80 609.062 80.9375C610.781 81.0937 612.968 81.4843 615.156 82.1875C621.406 76.0156 629.921 73.4375 639.14 73.4375C642.812 73.4375 648.828 72.9687 652.265 74.6093C655.546 76.0937 656.953 81.6406 658.203 84.5312C659.531 87.6562 660.625 90.8593 661.25 94.1406C660 94.9219 658.75 95.7031 657.5 96.5625C657.5 96.5625 677.578 88.2031 683.046 89.1406C696.093 91.4062 701.328 112.109 700.468 114.297Z" fill="#B5CDFB"></path>
<path d="M640.391 426.25C633.672 418.593 621.719 402.343 630.938 392.5C636.094 396.25 641.563 398.281 646.25 402.656C643.282 381.406 622.891 359.453 628.282 337.187C631.25 324.922 640.157 336.015 644.922 340.39C646.094 328.125 639.453 314.765 639.688 302.031C639.922 287.343 651.719 267.109 664.375 259.297C664.61 264.765 664.922 269.609 668.516 273.515C676.016 265.234 695 237.265 707.891 244.375C718.438 250.234 713.75 264.453 714.141 273.984C727.969 274.765 727.735 277.5 725.157 290.156C721.407 308.203 740.157 295.078 743.907 308.828C745.625 315.234 739.922 326.484 738.36 333.359C736.797 339.922 735.313 346.64 735 353.281C734.375 366.093 746.094 358.75 747.578 368.515C748.282 373.125 743.125 380.312 741.719 384.609C739.453 391.562 737.188 398.281 735.547 405.312C734.375 410.468 731.016 416.406 731.485 421.718C731.875 425.625 733.907 426.797 735.625 430.781C739.922 440.703 726.563 450.312 721.328 457.5C717.266 463.047 713.203 475.39 707.422 477.734C695.235 482.656 682.813 475 675.547 466.64" fill="#C4B6FF"></path>
<path d="M690.391 470.703C688.516 471.015 686.641 471.25 684.688 471.328C683.359 471.328 682.109 471.406 680.859 471.484C677.656 471.64 674.531 471.953 671.172 472.422C668.984 472.734 666.563 473.047 664.375 472.343C662.031 471.64 660.313 469.687 657.734 469.297C655.313 468.984 653.125 469.922 650.859 470.781C650.156 470 649.531 469.14 648.906 468.281C646.328 464.765 644.688 460.39 642.5 456.484C639.453 451.015 636.328 445.703 637.813 439.922C638.281 438.047 639.063 436.562 640.547 435.937C642.031 435.312 643.438 436.875 644.688 436.562C648.047 435.703 646.172 426.406 647.656 422.109C648.125 420.703 649.922 416.093 651.094 415.859C653.047 415.39 653.594 418.593 655.078 420.937C661.25 431.093 661.875 420.547 666.797 418.047C672.266 415.312 671.563 421.875 674.609 427.5C678.516 426.328 680.547 411.562 686.094 419.297C688.75 422.969 690 428.437 690.234 432.734C690.313 433.281 690.313 433.906 690.313 434.453C690.391 439.14 689.766 443.672 689.531 448.203C689.297 453.672 689.766 459.375 690.234 465.078C690.469 467.031 690.469 468.906 690.391 470.703Z" fill="#7D55FF"></path>
<path d="M753.75 468.594C750.156 489.141 723.437 489.297 707.734 489.141C700.469 489.062 693.125 488.672 685.859 488.203C679.453 487.812 672.969 487.5 666.562 487.422C664.062 487.422 661.484 487.422 658.984 487.422C645.39 487.734 591.406 486.25 594.687 485.078C598.828 483.594 601.406 481.016 604.453 478.125C606.719 475.937 610.312 472.891 613.203 471.719C615.703 470.781 617.812 471.797 620.469 471.875C625.39 471.953 629.219 468.984 633.828 468.437C638.672 467.812 642.656 471.484 647.422 471.172C648.75 471.094 649.922 470.703 651.172 470.312C653.437 469.531 655.625 468.594 658.047 468.984C660.625 469.375 662.265 471.406 664.609 472.187C666.797 472.891 669.219 472.656 671.406 472.344C674.687 471.875 677.812 471.641 681.094 471.562C682.344 471.484 683.672 471.484 684.922 471.484C686.875 471.484 688.75 471.25 690.625 471.016C693.594 470.625 696.484 470.156 699.609 470.391C703.75 470.703 706.64 471.953 710.078 468.906C712.89 466.406 714.14 461.797 717.344 465.625C720.625 469.531 720.078 470.547 723.906 469.844C724.375 469.766 724.844 469.687 725.39 469.531C728.047 468.984 730.547 469.531 733.203 469.922C734.844 470.156 736.25 470.312 737.734 471.016C738.437 471.406 738.828 472.578 739.531 472.812C741.484 473.437 743.594 471.719 745.234 470.937C747.187 470.078 751.25 468.125 753.75 468.594Z" fill="#C4B6FF"></path>
<path d="M757.656 414.765C757.344 418.437 752.5 423.984 750.781 427.422C748.75 431.562 746.25 435.39 743.984 439.375C737.734 450.781 732.266 464.062 722.266 472.734C721.953 472.969 721.641 473.281 721.25 473.515C717.344 474.297 717.969 473.281 714.531 469.453C711.25 465.703 710.078 470.39 707.344 472.89C703.984 476.015 701.094 474.844 696.953 474.609C693.906 474.453 690.938 475 688.047 475.469C686.172 475.781 684.297 476.015 682.344 476.094C681.016 476.094 679.766 476.172 678.516 476.25C679.063 473.125 679.766 470.859 679.219 467.656C678.906 465.39 678.047 463.515 680.547 463.828C679.297 460.547 681.328 456.875 682.422 453.828C684.141 448.984 685.937 444.062 687.969 439.297C689.375 436.015 690.859 432.812 692.578 429.765C696.328 422.969 702.422 413.437 710.781 411.64C710.859 413.281 710.781 414.922 710.859 416.562C713.203 412.422 717.813 409.922 721.797 407.187C725.625 404.531 733.359 396.328 738.203 396.094C746.641 395.625 740.234 407.969 739.453 412.031C743.906 412.109 758.281 406.562 757.656 414.765Z" fill="#7D55FF"></path>
<path d="M681.641 393.984C688.125 385.391 681.875 374.453 680.547 365.469C678.984 354.922 679.531 343.359 679.063 332.656C678.203 311.094 676.719 286.406 687.266 266.719" stroke="#78D2EE" stroke-width="3.5865" stroke-miterlimit="10" stroke-linecap="round"></path>
<path d="M691.875 371.328C691.953 359.14 701.875 346.406 708.906 337.265" stroke="#78D2EE" stroke-width="3.5865" stroke-miterlimit="10" stroke-linecap="round"></path>
<path d="M653.281 351.953C652.265 335.468 638.437 319.609 636.328 302.343C634.765 289.687 641.797 282.89 643.047 271.25" stroke="#78D2EE" stroke-width="3.5865" stroke-miterlimit="10" stroke-linecap="round"></path>
<path d="M671.406 476.953C670 467.969 664.766 453.594 656.641 448.516" stroke="#78D2EE" stroke-width="3.586" stroke-miterlimit="10" stroke-linecap="round"></path>
<path d="M468.984 276.077C485.625 270.921 506.328 266.546 524.609 268.108C535.547 269.046 547.578 273.03 557.109 278.577C567.187 284.437 607.187 306.468 615.625 297.64" stroke="#78D2EE" stroke-width="3.586" stroke-miterlimit="10" stroke-linecap="round"></path>
<path d="M691.719 84.045C698.438 81.9356 702.734 91.6231 705.391 97.7168" stroke="#78D2EE" stroke-width="3.586" stroke-miterlimit="10" stroke-linecap="round"></path>
<path d="M534.922 107.951C538.672 108.889 542.344 109.279 546.25 109.123" stroke="#78D2EE" stroke-width="3.586" stroke-miterlimit="10" stroke-linecap="round"></path>
<path d="M548.594 88.5755C553.828 86.0755 558.516 88.1849 561.094 93.1068" stroke="#78D2EE" stroke-width="3.586" stroke-miterlimit="10" stroke-linecap="round"></path>
<path d="M254.595 499.206C272.876 499.596 290.767 498.268 309.126 499.206C319.985 499.674 352.017 499.049 378.579 499.049" stroke="#005B9D" stroke-width="3.5865" stroke-miterlimit="10" stroke-linecap="round"></path>
<path d="M78.2032 50.7815C62.3438 45.7815 56.9532 77.0315 56.5626 87.4221C55.8594 107.813 67.0313 122.11 86.6407 128.125C112.813 136.172 132.266 130.235 143.906 105.547C157.969 75.6252 135.391 47.5002 105.469 43.6721C93.7501 42.1877 85.6251 45.8596 78.2032 50.7815Z" fill="#B5CDFB"></path>
<path d="M145.234 37.1094C150.625 34.2969 156.953 31.4062 161.172 26.875" stroke="#78D2EE" stroke-width="3.586" stroke-miterlimit="10" stroke-linecap="round"></path>
<path d="M38.4375 141.726C43.8281 138.913 50.1563 136.022 54.375 131.491" stroke="#78D2EE" stroke-width="3.586" stroke-miterlimit="10" stroke-linecap="round"></path>
<path d="M98.6719 30.3125C98.0469 27.1875 96.875 23.9844 95.2344 21.25" stroke="#78D2EE" stroke-width="3.586" stroke-miterlimit="10" stroke-linecap="round"></path>
<path d="M39.3633 21.2764C45.3008 26.1982 49.6095 27.6564 54.3751 33.7502" stroke="#78D2EE" stroke-width="3.586" stroke-miterlimit="10" stroke-linecap="round"></path>
<path d="M141.354 134.844C147.291 139.766 150.26 149.219 155.025 155.313" stroke="#78D2EE" stroke-width="3.586" stroke-miterlimit="10" stroke-linecap="round"></path>
<path d="M27.0312 83.75C32.3437 83.75 37.6563 83.75 42.9687 83.75" stroke="#78D2EE" stroke-width="3.586" stroke-miterlimit="10" stroke-linecap="round"></path>
<path d="M154.389 83.75C159.701 83.75 165.014 83.75 170.326 83.75" stroke="#78D2EE" stroke-width="3.586" stroke-miterlimit="10" stroke-linecap="round"></path>
<path d="M92.9688 145.078C91.7188 149.687 91.2501 155 91.7969 159.844" stroke="#78D2EE" stroke-width="3.586" stroke-miterlimit="10" stroke-linecap="round"></path>
<path d="M234.375 124.669C257.344 122.248 279.453 122.716 302.109 127.56C323.516 132.091 343.594 141.31 364.766 146.779C387.109 152.56 410.391 155.998 433.516 156.232C474.141 156.623 514.609 150.216 555.391 150.216C567.266 150.216 580.625 148.576 592.344 151.076" stroke="#78D2EE" stroke-width="3.586" stroke-miterlimit="10" stroke-linecap="round"></path>
<path d="M506.484 206.779C527.578 207.014 550.781 199.67 572.266 198.342C592.422 197.092 612.344 198.342 632.5 198.889C651.406 199.436 672.734 202.092 691.406 199.748C706.094 197.951 720.625 192.248 734.922 188.576" stroke="#78D2EE" stroke-width="3.586" stroke-miterlimit="10" stroke-linecap="round"></path>
</svg>
